<svg xmlns="http://www.w3.org/2000/svg" data-name="1" viewBox="0 0 128 128" id="logo"><path d="M81 62h-8a2 2 0 0 0 0 4h5.66A6 6 0 1 1 73 58a5.92 5.92 0 0 1 2.59.59A2 2 0 0 0 77.32 55 9.9 9.9 0 0 0 73 54a10 10 0 1 0 10 10 2 2 0 0 0-2-2zm-43 8H28V56a2 2 0 0 0-4 0v16a2 2 0 0 0 2 2h12a2 2 0 0 0 0-4zm12-16a10 10 0 1 0 10 10 10 10 0 0 0-10-10zm0 16a6 6 0 1 1 6-6 6 6 0 0 1-6 6zm46-16a10 10 0 1 0 10 10 10 10 0 0 0-10-10zm0 16a6 6 0 1 1 6-6 6 6 0 0 1-6 6z"></path><path d="M64 0a64 64 0 1 0 64 64A64.07 64.07 0 0 0 64 0Zm0 124a60 60 0 1 1 60-60 60.07 60.07 0 0 1-60 60Z"></path></svg>